<svg width="37" height="29" viewBox="0 0 37 29" fill="none" xmlns="http://www.w3.org/2000/svg">
<g clip-path="url(#clip0_51_1083)">
<path d="M31.3426 2.34851C28.9116 1.23557 26.3453 0.446007 23.7092 0C23.3485 0.644861 23.0221 1.30834 22.7314 1.98765C19.9234 1.56452 17.0678 1.56452 14.2598 1.98765C13.969 1.30841 13.6426 0.644939 13.282 0C10.6442 0.449774 8.07619 1.24121 5.64281 2.35433C0.811912 9.50173 -0.497668 16.4716 0.157122 23.3425C2.98621 25.4328 6.15278 27.0225 9.51916 28.0425C10.2772 27.023 10.9479 25.9414 11.5243 24.8093C10.4296 24.4004 9.37297 23.896 8.36673 23.3018C8.63156 23.1097 8.89056 22.9118 9.14084 22.7198C12.0688 24.0967 15.2644 24.8106 18.5 24.8106C21.7355 24.8106 24.9312 24.0967 27.8591 22.7198C28.1123 22.9264 28.3713 23.1243 28.6332 23.3018C27.625 23.8969 26.5665 24.4023 25.4698 24.8122C26.0455 25.9438 26.7163 27.0245 27.475 28.0425C30.8442 27.0266 34.0132 25.4376 36.8428 23.3454C37.6111 15.3774 35.5303 8.47153 31.3426 2.34851ZM12.3537 19.117C10.529 19.117 9.02152 17.4611 9.02152 15.4239C9.02152 13.3868 10.4766 11.7164 12.3479 11.7164C14.2191 11.7164 15.7149 13.3868 15.6829 15.4239C15.6509 17.4611 14.2133 19.117 12.3537 19.117ZM24.6463 19.117C22.8187 19.117 21.317 17.4611 21.317 15.4239C21.317 13.3868 22.7721 11.7164 24.6463 11.7164C26.5204 11.7164 28.0046 13.3868 27.9726 15.4239C27.9406 17.4611 26.5059 19.117 24.6463 19.117Z" fill="#D5D9E2"/>
</g>
<defs>
<clipPath id="clip0_51_1083">
<rect width="37" height="28.0425" fill="white"/>
</clipPath>
</defs>
</svg>
