<svg width="32" height="33" viewBox="0 0 32 33" fill="none" xmlns="http://www.w3.org/2000/svg">
<g clip-path="url(#clip0_115_93)">
<path d="M9.5 3.06397L9.5 20.436C9.5 21.8521 10.6479 23 12.064 23H29.436C30.8521 23 32 21.8521 32 20.436V3.06397C32 1.64793 30.8521 0.5 29.436 0.5H12.064C10.6479 0.5 9.5 1.64793 9.5 3.06397Z" fill="#126A57"/>
<path d="M4.75 6.70642L4.75 25.0436C4.75 26.5383 5.9617 27.75 7.45642 27.75H25.7936C27.2883 27.75 28.5 26.5383 28.5 25.0436V6.70642C28.5 5.2117 27.2883 4 25.7936 4H7.45642C5.9617 4 4.75 5.2117 4.75 6.70642Z" fill="#16856B"/>
<path d="M0 10.3489L0 29.6511C0 31.2245 1.27548 32.5 2.84886 32.5H22.1511C23.7245 32.5 25 31.2245 25 29.6511V10.3489C25 8.77548 23.7245 7.5 22.1511 7.5H2.84886C1.27548 7.5 0 8.77548 0 10.3489Z" fill="#47C09D"/>
</g>
<defs>
<clipPath id="clip0_115_93">
<rect width="32" height="32" fill="white" transform="translate(0 0.5)"/>
</clipPath>
</defs>
</svg>
