<svg width="37" height="36" viewBox="0 0 37 36" fill="none" xmlns="http://www.w3.org/2000/svg">
<path d="M18.6808 0.00190999C14.2593 -0.0617472 9.96257 1.46766 6.57571 4.31065C3.18885 7.15364 0.938033 11.1204 0.23457 15.486C-0.468894 19.8516 0.421969 24.3246 2.74436 28.0875C5.06676 31.8505 8.66561 34.6522 12.8833 35.9806C13.7359 36.1511 14.4179 35.2133 14.4179 34.446V31.9735C9.30246 33.0819 7.68256 29.501 7.68256 29.501C7.34995 28.4218 6.69551 27.4698 5.8069 26.7728C4.10174 25.5792 5.89215 25.6645 5.89215 25.6645C6.46154 25.7099 7.01243 25.8877 7.50091 26.1837C7.98939 26.4798 8.40194 26.8859 8.70566 27.3696C10.155 29.8421 13.3948 29.5863 14.4179 29.16C14.3284 28.3123 14.476 27.4563 14.8442 26.6875C9.04669 25.6645 5.89215 22.2541 5.89215 17.6502C5.83116 15.2491 6.71959 12.9208 8.36462 11.1707C7.90636 10.3241 7.68798 9.36842 7.73306 8.40681C7.77813 7.44521 8.08495 6.51417 8.6204 5.71417C9.65009 5.73442 10.6649 5.96408 11.603 6.38914C12.541 6.81421 13.3828 7.42579 14.0769 8.18664C15.5573 7.68147 17.1175 7.45034 18.6808 7.50458C20.2375 7.45633 21.7918 7.65782 23.2847 8.10138C23.9892 7.35989 24.8348 6.76673 25.7719 6.35677C26.7089 5.94682 27.7185 5.72833 28.7412 5.71417C29.2649 6.51659 29.5716 7.44109 29.6314 8.39743C29.6912 9.35378 29.502 10.3093 29.0822 11.1707C30.6963 12.9343 31.5535 15.261 31.4694 17.6502C31.4694 22.2541 28.3149 25.6645 22.5174 26.6875C22.8856 27.4563 23.0332 28.3123 22.9437 29.16V34.446C22.9434 34.6549 22.9857 34.8617 23.0681 35.0537C23.1505 35.2456 23.2712 35.4188 23.4229 35.5624C23.5745 35.7061 23.7539 35.8173 23.9501 35.8892C24.1462 35.9611 24.355 35.9922 24.5636 35.9806C28.6808 34.5521 32.1615 31.716 34.3923 27.9722C36.6231 24.2285 37.4607 19.8174 36.7575 15.5165C36.0543 11.2157 33.8554 7.30107 30.5484 4.46278C27.2414 1.6245 23.0386 0.0447191 18.6808 0.00190999Z" fill="#D5D9E2"/>
</svg>
