<svg width="37" height="28" viewBox="0 0 37 28" fill="none" xmlns="http://www.w3.org/2000/svg">
<g clip-path="url(#clip0_51_1092)">
<path d="M2.52273 27.75H8.40909V13.4545L0 7.14771V25.2272C0 26.6232 1.13102 27.75 2.52273 27.75Z" fill="#B1BAC8"/>
<path d="M28.5908 27.75H34.4772C35.8731 27.75 36.9999 26.619 36.9999 25.2272V7.14771L28.5908 13.4545" fill="#5C6E7B"/>
<path d="M28.5908 2.5228V13.4546L36.9999 7.1478V3.78417C36.9999 0.664395 33.4387 -1.11413 30.9454 0.756895" fill="#8197A6"/>
<path d="M8.40918 13.4545V2.52271L18.5001 10.0909L28.591 2.52271V13.4545L18.5001 21.0227" fill="#677790"/>
<path d="M0 3.78417V7.1478L8.40909 13.4546V2.5228L6.05455 0.756895C3.55705 -1.11413 0 0.664395 0 3.78417Z" fill="#8694AA"/>
</g>
<defs>
<clipPath id="clip0_51_1092">
<rect width="37" height="27.75" fill="white"/>
</clipPath>
</defs>
</svg>
