<svg width="654" height="485" viewBox="0 0 654 485" fill="none" xmlns="http://www.w3.org/2000/svg">
<g clip-path="url(#clip0_51_799)">
<path d="M592.198 482.753H453.528V478.493C453.528 474.795 454.995 471.247 457.608 468.632C460.22 466.016 463.764 464.547 467.459 464.547H578.267C581.962 464.547 585.505 466.016 588.118 468.632C590.73 471.247 592.198 474.795 592.198 478.493V482.753Z" fill="#E6E6E6"/>
<path d="M519.618 465.397L523.835 463.697C479.711 354.053 483.962 215.727 521.261 97.0688C525.691 83.3205 526.011 68.5755 522.18 54.6478C518.349 40.72 510.535 28.2172 499.699 18.6774C478.049 -0.663628 448.202 -5.37526 421.801 6.37992C395.741 17.9851 392.149 38.1996 392.149 58.3157H396.695C396.695 36.8427 401.279 20.5004 423.649 10.5387C448.393 -0.47805 476.373 3.94078 496.671 22.0739C506.849 31.0338 514.189 42.7769 517.787 55.8583C521.385 68.9398 521.085 82.789 516.924 95.702C479.194 215.731 475.193 355.006 519.618 465.397Z" fill="#E6E6E6"/>
<path d="M395.559 125.452C404.347 125.452 411.472 118.319 411.472 109.521C411.472 100.723 404.347 93.5906 395.559 93.5906C386.77 93.5906 379.646 100.723 379.646 109.521C379.646 118.319 386.77 125.452 395.559 125.452Z" fill="#E6E6E6"/>
<path d="M371.051 137.293V107.108H375.74V137.293C377.084 137.838 378.198 138.833 378.89 140.11C379.582 141.386 379.808 142.864 379.531 144.29C379.254 145.715 378.491 147 377.371 147.924C376.252 148.847 374.846 149.352 373.395 149.352C371.945 149.352 370.539 148.847 369.42 147.924C368.3 147 367.537 145.715 367.259 144.29C366.982 142.864 367.209 141.386 367.901 140.11C368.593 138.833 369.706 137.838 371.051 137.293Z" fill="#E6E6E6"/>
<path d="M348.388 83.9184C348.396 76.9796 351.153 70.3273 356.054 65.4208C360.955 60.5144 367.6 57.7545 374.531 57.7466H417.723C424.657 57.7466 431.306 60.504 436.209 65.4121C441.112 70.3203 443.866 76.9772 443.866 83.9184C443.866 90.8596 441.112 97.5164 436.209 102.425C431.306 107.333 424.657 110.09 417.723 110.09H374.531C367.6 110.082 360.955 107.322 356.054 102.416C351.153 97.5095 348.396 90.8571 348.388 83.9184Z" fill="#BFFFBC"/>
<path d="M287.532 245.991C291.868 190.447 314.041 163.983 299.844 147.387C286.244 131.49 247.936 134.774 223.334 150.028C156.977 191.172 132.667 355.156 218.058 435.275C299.201 511.408 452.984 487.024 487.159 424.71C495.133 410.171 501.468 384.682 489.798 369.246C460.823 330.922 355.476 400.337 308.638 356.92C280.88 331.19 285.152 276.473 287.532 245.991Z" fill="#3F3D56"/>
<path d="M338.256 218.396C336.644 219.138 335.385 220.481 334.747 222.138C334.109 223.795 334.142 225.636 334.839 227.269C334.986 227.599 335.16 227.916 335.359 228.217L321.117 247.256L328.224 257.89L344.918 229.698C346.101 228.774 346.945 227.485 347.319 226.031C347.692 224.576 347.575 223.039 346.984 221.659C346.641 220.877 346.147 220.17 345.53 219.579C344.914 218.988 344.187 218.524 343.392 218.214C342.596 217.905 341.748 217.755 340.894 217.773C340.041 217.791 339.199 217.978 338.418 218.322C338.364 218.346 338.31 218.371 338.256 218.396Z" fill="#FFB6B6"/>
<path d="M338.244 251.221C339.176 252.049 336.591 253.07 333.856 251.459C333.073 250.992 332.739 250.799 332.651 250.922C332.431 251.23 333.715 253.501 333.372 258.546C333.161 261.557 328.166 267.218 322.494 272.738C314.825 280.204 305.908 287.405 305.908 287.405L302.777 284.896L269.949 258.546L264.408 250.869C264.916 247.837 265.678 244.854 266.686 241.951C268.075 237.932 269.726 234.009 271.628 230.206C272.649 228.137 273.695 226.165 274.698 224.352L292.286 243.755L307.025 260.007C307.025 260.007 311.317 253.088 314.641 251.204C315.065 250.933 315.547 250.767 316.048 250.719C319.407 250.561 319.61 248.73 315.714 244.741C311.818 240.753 316.734 244.477 320.199 243.403C323.664 242.329 320.199 243.403 320.929 240.718C321.659 238.033 331.376 232.645 331.376 232.645L331.781 233.006L339.124 239.494L341.226 241.352C341.226 241.352 338.93 247.656 338.297 248.985C337.664 250.314 337.321 250.385 338.244 251.221Z" fill="#BFFFBC"/>
<path d="M531.819 373.521L532.177 363.81L494.932 357.807L494.404 372.139L531.819 373.521Z" fill="#FFB6B6"/>
<path d="M525.058 376.445L524.705 360.897L531.344 361.142L542.064 346.768C542.593 346.058 543.335 345.536 544.182 345.278C545.028 345.02 545.935 345.04 546.77 345.335C547.604 345.629 548.323 346.183 548.821 346.916C549.319 347.648 549.57 348.521 549.537 349.406L548.856 367.877L542.171 370.818L548.693 372.303L548.436 379.267L525.058 376.445Z" fill="#2F2E41"/>
<path d="M322.202 377.302L440.169 380.296C440.169 380.296 491.112 383.242 503.064 375.458L515.668 373.865L516.351 355.33C516.351 355.33 508.644 355.387 504.213 353.32C499.781 351.253 502.861 348.724 498.636 351.211C494.411 353.698 494.857 353.997 491.591 352.854C488.324 351.711 338.528 328.854 338.528 328.854L322.202 377.302Z" fill="#2F2E41"/>
<path d="M477.652 369.259L484.512 362.384L461.286 332.623L451.162 342.771L477.652 369.259Z" fill="#FFB6B6"/>
<path d="M470.709 363.278L481.014 351.639L485.714 356.339L503.338 353.1C504.208 352.94 505.107 353.063 505.903 353.45C506.699 353.838 507.35 354.47 507.762 355.254C508.173 356.038 508.324 356.934 508.191 357.81C508.058 358.686 507.649 359.496 507.024 360.123L493.977 373.2L487.078 370.804L490.85 376.334L485.93 381.265L470.709 363.278Z" fill="#2F2E41"/>
<path d="M275.66 312.624L276.833 339.915C278.214 372.044 313.557 391.489 340.963 374.714C341.468 374.405 341.975 374.085 342.483 373.754C342.483 373.754 352.873 370.96 352.557 366.537C352.242 362.113 354.78 359.96 357.026 361.167C359.273 362.373 388.682 320.589 388.682 320.589C388.682 320.589 449.785 351.102 463.265 358.285C463.265 358.285 475.939 338.447 475.02 338.655C474.101 338.863 399.428 286.541 399.428 286.541C399.428 286.541 387.263 274.215 372.172 282.353C371.858 283.549 372.127 283.59 372.127 283.59L322.277 324.254L315.234 310.863L275.66 312.624Z" fill="#2F2E41"/>
<path d="M322.661 278.505C322.566 279.765 322.387 281.018 322.125 282.255C321.766 284.045 321.187 285.784 320.401 287.432C320.401 287.432 320.401 289.272 316.883 295.435C313.366 301.597 317.763 298.956 320.401 303.534C323.039 308.103 320.401 305.999 317.472 308.94C316.629 309.795 316.031 310.862 315.738 312.027C315.446 313.193 315.471 314.416 315.81 315.569C315.81 315.569 278.031 315.595 270.995 312.954C263.96 310.313 262.359 295.435 268.665 293.964C274.961 292.494 266.757 291.033 263.054 287.643C259.352 284.254 266.756 278.707 266.756 278.707C266.756 278.707 263.705 273.434 263.96 255.729C263.996 254.1 264.146 252.477 264.408 250.869C264.916 247.837 265.678 244.854 266.686 241.951C268.075 237.932 269.726 234.009 271.628 230.206C272.648 228.137 273.695 226.165 274.698 224.352C274.856 224.07 275.005 223.797 275.164 223.524C277.072 220.143 278.813 217.379 279.965 215.609C280.854 214.236 281.39 213.461 281.39 213.461L287.792 202.315L309.162 212.343L307.948 228.745L311.633 241.114L313.33 246.81L314.641 251.204L316.663 258.009C316.663 258.009 316.109 258.035 316.769 258.942C319.806 262.985 321.776 267.73 322.494 272.738C322.747 274.649 322.803 276.582 322.661 278.505Z" fill="#BFFFBC"/>
<path d="M384.375 280.272L383.974 280.142L332.826 263.653L351.673 201.752C352.049 200.519 352.699 199.388 353.574 198.443C354.45 197.498 355.528 196.765 356.728 196.298C357.928 195.831 359.218 195.643 360.501 195.748C361.784 195.853 363.026 196.248 364.134 196.904L396.82 216.236C399.407 217.765 401.376 220.155 402.381 222.989C403.387 225.823 403.366 228.921 402.321 231.741L384.375 280.272Z" fill="#2F2E41"/>
<path d="M384.582 284.207L333.023 267.586L351.871 205.684C352.246 204.451 352.896 203.32 353.771 202.375C354.647 201.431 355.725 200.697 356.925 200.231C358.125 199.764 359.415 199.576 360.698 199.681C361.981 199.785 363.223 200.181 364.332 200.836L398.578 217.953C403.723 220.995 403.602 228.869 401.213 235.33L384.582 284.207Z" fill="#BFFFBC"/>
<path d="M379.42 288.688C378.233 289.358 376.919 289.774 375.563 289.909C374.206 290.044 372.837 289.896 371.541 289.472L338.585 278.848C336.057 278.021 333.951 276.237 332.719 273.877C331.487 271.517 331.225 268.768 331.99 266.218L348.512 211.953C348.842 210.869 349.385 209.862 350.109 208.99C350.834 208.119 351.724 207.401 352.729 206.879C353.734 206.357 354.833 206.041 355.961 205.95C357.09 205.858 358.225 205.993 359.3 206.347L393.452 217.573C395.08 218.108 396.583 218.964 397.875 220.09C399.166 221.216 400.219 222.59 400.971 224.131C401.723 225.671 402.159 227.347 402.253 229.059C402.347 230.771 402.098 232.485 401.519 234.098L383.854 283.404C383.06 285.642 381.486 287.519 379.42 288.688Z" fill="#3F3D56"/>
<path d="M307.954 202.506C320.99 202.506 331.558 191.926 331.558 178.875C331.558 165.824 320.99 155.245 307.954 155.245C294.917 155.245 284.349 165.824 284.349 178.875C284.349 191.926 294.917 202.506 307.954 202.506Z" fill="#FFB6B6"/>
<path d="M228.135 202.862C230.301 207.065 233.853 210.389 238.188 212.27C239.918 213.059 241.737 213.635 243.605 213.986C244.133 211.889 244.979 209.886 246.112 208.045C245.734 210.12 245.734 212.246 246.112 214.321C248.958 214.554 251.822 214.198 254.526 213.275C257.18 212.371 259.588 210.86 261.558 208.863C263.528 206.865 265.006 204.435 265.874 201.766C267.754 195.502 265.729 188.812 265.569 182.274C265.405 175.735 268.506 167.914 274.99 167.105C279.928 166.488 279.318 166.967 282.866 170.459C277.903 175.979 290.002 200.424 296.494 199.344C300.165 198.733 302.866 195.816 303.592 195.917C307.309 205.031 296.127 217.957 304.996 222.201L304.338 221.329C299.696 213.651 313.433 200.683 308.79 193.006C307.496 190.858 306.15 188.34 306.951 185.964C307.711 183.705 311.56 182.99 312.372 185.046C311.052 180.333 314.737 174.802 319.631 174.321C323.979 173.891 323.729 175.132 327.874 176.264C328.404 174.476 329.168 172.766 330.145 171.178C329.814 172.99 329.773 174.842 330.024 176.667C331.519 176.845 333.032 176.525 334.326 175.755C338.155 173.457 338.269 167.526 335.639 163.917C333.004 160.306 328.591 158.524 324.333 157.175C324.294 148.161 300.065 143.845 295.609 152.226C295.151 145.44 287.381 140.869 280.688 142.022C273.994 143.175 268.714 148.548 265.494 154.536C262.276 160.52 260.678 167.221 258.321 173.595C255.965 179.969 252.597 186.325 246.954 190.107C241.312 193.884 232.928 194.227 228.217 189.331C227.143 191.421 226.575 193.736 226.561 196.086C226.547 198.437 227.086 200.758 228.135 202.862Z" fill="#2F2E41"/>
<path d="M252.355 310.922C252.843 310.531 253.373 310.195 253.935 309.92C262.97 305.419 291.066 293.734 313.035 294.214C355.305 295.136 409.099 341.838 396.579 373.2C387.053 397.064 339.692 410.641 305.12 399.782C256.687 384.57 237.57 322.723 252.355 310.922Z" fill="#3F3D56"/>
<path d="M76.8744 482.844C63.0623 480.235 50.836 417.94 78.0111 387.26C87.3216 376.748 98.9353 372.173 114.384 367.915C203.299 343.409 271.117 366.765 280.23 372.467C289.324 378.156 305.265 463.882 284.88 476.016C273.411 482.844 250.678 486.257 239.414 478.292C222.841 466.572 250.66 436.171 238.278 415.707C224.227 392.486 150.238 384.664 113.144 407.742C73.568 432.364 155.2 497.636 76.8744 482.844Z" fill="#F2F2F2"/>
<path d="M169.221 376.929H116.453C103.427 364.431 94.1135 352.387 101.57 342.389C101.57 339.515 102.711 336.759 104.74 334.727C106.77 332.694 109.523 331.553 112.394 331.553H173.28C176.15 331.553 178.903 332.694 180.933 334.727C182.963 336.759 184.104 339.515 184.104 342.389C186.943 353.781 181.871 365.296 169.221 376.929Z" fill="#CCCCCC"/>
<path d="M159.744 317.911C159.243 317.934 158.748 317.802 158.324 317.534C157.901 317.266 157.57 316.873 157.377 316.411C157.183 315.948 157.137 315.436 157.243 314.946C157.35 314.456 157.604 314.01 157.972 313.67L158.14 313.003C158.118 312.95 158.096 312.896 158.073 312.843C157.569 311.65 156.724 310.633 155.644 309.92C154.564 309.207 153.298 308.829 152.004 308.834C150.71 308.838 149.447 309.226 148.373 309.947C147.298 310.669 146.46 311.692 145.965 312.888C143.985 317.663 141.463 322.446 140.842 327.495C140.569 329.727 140.684 331.989 141.183 334.181C136.532 324.023 134.117 312.983 134.101 301.809C134.1 299.005 134.256 296.203 134.567 293.416C134.825 291.132 135.182 288.864 135.639 286.612C138.132 274.393 143.484 262.941 151.257 253.195C155.019 251.14 158.061 247.98 159.974 244.141C160.667 242.761 161.157 241.288 161.428 239.767C161.004 239.823 159.828 233.353 160.148 232.956C159.557 232.057 158.498 231.611 157.852 230.734C154.64 226.374 150.214 227.135 147.904 233.06C142.968 235.554 142.92 239.69 145.949 243.667C147.876 246.198 148.14 249.622 149.831 252.331C149.657 252.554 149.476 252.77 149.302 252.993C146.123 257.086 143.352 261.481 141.029 266.115C141.594 260.923 140.919 255.672 139.061 250.792C137.178 246.245 133.649 242.415 130.541 238.483C126.807 233.761 119.152 235.822 118.494 241.808C118.488 241.866 118.482 241.924 118.476 241.982C118.937 242.243 119.389 242.519 119.831 242.812C120.387 243.184 120.817 243.714 121.066 244.335C121.315 244.956 121.371 245.637 121.226 246.29C121.082 246.943 120.744 247.537 120.256 247.994C119.769 248.452 119.155 248.751 118.494 248.853L118.427 248.863C118.591 250.529 118.882 252.179 119.296 253.801C115.309 269.238 123.917 274.861 136.209 275.113C136.48 275.252 136.745 275.392 137.016 275.524C134.682 282.146 133.218 289.043 132.661 296.042C132.345 300.172 132.364 304.32 132.717 308.446L132.696 308.3C131.805 303.712 129.36 299.571 125.773 296.578C120.446 292.198 112.92 290.584 107.173 287.063C106.563 286.671 105.852 286.461 105.127 286.459C104.401 286.457 103.69 286.663 103.077 287.053C102.464 287.443 101.976 288 101.669 288.658C101.362 289.316 101.249 290.049 101.345 290.769C101.352 290.821 101.36 290.872 101.368 290.923C102.225 291.272 103.059 291.675 103.866 292.128C104.327 292.389 104.779 292.665 105.222 292.958C105.777 293.33 106.207 293.861 106.456 294.481C106.705 295.102 106.761 295.783 106.617 296.436C106.472 297.089 106.134 297.683 105.647 298.14C105.159 298.598 104.545 298.897 103.885 298.999L103.817 299.009C103.768 299.016 103.727 299.023 103.678 299.03C105.142 302.529 107.196 305.75 109.751 308.551C112.245 322.027 122.953 323.305 134.407 319.381H134.414C135.671 324.848 137.492 330.17 139.848 335.261H159.258C159.327 335.045 159.39 334.822 159.452 334.606C157.656 334.719 155.852 334.611 154.082 334.286C155.522 332.516 156.962 330.733 158.402 328.964C158.434 328.931 158.464 328.896 158.492 328.86C159.223 327.955 159.96 327.056 160.691 326.151L160.691 326.15C160.73 323.374 160.411 320.605 159.744 317.911Z" fill="#CCCCCC"/>
<path d="M225.948 374.098C226.27 375.036 226.881 375.848 227.692 376.418C228.504 376.987 229.475 377.284 230.466 377.266L249.824 376.767C250.822 376.748 251.787 376.406 252.575 375.792C253.362 375.178 253.931 374.325 254.194 373.361L256.933 344.036C257.905 344.477 258.963 344.695 260.03 344.673C261.902 344.626 263.678 343.837 264.969 342.478C266.259 341.12 266.957 339.304 266.91 337.431C266.863 335.557 266.075 333.778 264.718 332.487C263.361 331.195 261.547 330.496 259.676 330.543C259.249 330.541 258.824 330.586 258.407 330.675C257.954 330.184 257.402 329.793 256.789 329.528C256.176 329.263 255.514 329.13 254.846 329.136L225.069 329.906C224.822 329.915 224.576 329.946 224.334 329.998C223.681 330.119 223.062 330.38 222.518 330.761C221.974 331.143 221.518 331.637 221.181 332.21C220.843 332.783 220.632 333.421 220.562 334.082C220.492 334.744 220.564 335.412 220.773 336.043L225.948 374.098ZM257.495 342.045L259.444 335.057C259.666 334.25 259.671 333.398 259.459 332.589C259.554 332.588 259.637 332.543 259.732 332.543C261.068 332.516 262.361 333.02 263.327 333.945C264.292 334.87 264.852 336.141 264.883 337.479C264.915 338.817 264.415 340.112 263.493 341.082C262.572 342.051 261.305 342.615 259.968 342.651C259.104 342.678 258.249 342.468 257.495 342.045Z" fill="#CCCCCC"/>
<path d="M224.334 329.998C224.969 333.629 232.101 336.182 240.677 335.738C248.564 335.375 255.012 332.602 256.193 329.317C255.756 329.187 255.301 329.127 254.846 329.137L225.069 329.907C224.822 329.916 224.576 329.946 224.334 329.998Z" fill="white"/>
<path d="M366.682 252.268C364.909 252.333 363.231 253.087 362.006 254.372C360.78 255.656 360.104 257.368 360.12 259.144C360.129 259.505 360.168 259.865 360.236 260.219L339.776 272.312L342.253 284.864L368.491 265.265C369.938 264.868 371.212 264.002 372.116 262.804C373.02 261.605 373.501 260.141 373.486 258.64C373.47 257.785 373.285 256.943 372.943 256.16C372.601 255.377 372.108 254.669 371.493 254.077C370.877 253.485 370.152 253.02 369.357 252.708C368.562 252.397 367.714 252.245 366.86 252.262C366.801 252.263 366.741 252.265 366.682 252.268Z" fill="#FFB6B6"/>
<path d="M349.922 281.096C349.374 280.362 349.139 280.055 349.015 280.139C348.694 280.333 349.003 282.926 346.749 287.446C343.577 293.796 310.316 303.521 310.316 303.521L306.221 296.016L288.209 263.033L282 236.596C281.783 235.674 281.677 234.729 281.686 233.782C287.222 229.883 293.1 226.495 299.249 223.662C301.706 225.057 303.579 227.291 304.526 229.955L316.925 264.76L321.873 278.656C321.873 278.656 330.6 272.408 333.766 273.555C336.927 274.709 337.825 273.091 335.759 267.911C333.693 262.731 336.794 268.063 340.403 268.402C344.019 268.746 340.403 268.402 342.111 266.204C343.819 264.006 354.862 262.769 354.862 262.769L355.097 263.259L359.376 272.072L360.601 274.604C360.601 274.604 356.065 279.532 354.97 280.514C353.87 281.503 353.53 281.435 354.069 282.562C354.6 283.684 351.822 283.633 349.922 281.096Z" fill="#BFFFBC"/>
</g>
<defs>
<clipPath id="clip0_51_799">
<rect width="654" height="485" fill="white"/>
</clipPath>
</defs>
</svg>
